<?xml version="1.0" encoding="utf-8"?>
<svg id="master-artboard" viewBox="0 0 64 64" xmlns="http://www.w3.org/2000/svg" width="64px" height="64px" version="1.1" style="shape-rendering:geometricPrecision; text-rendering:geometricPrecision; image-rendering:optimizeQuality; fill-rule:evenodd; clip-rule:evenodd"><defs><linearGradient id="gradient-0" gradientUnits="objectBoundingBox" x1="0.5" y1="0" x2="0.5" y2="1">
                <stop offset="0" style="stop-color: #ffffff"/>
                <stop offset="1" style="stop-color: #cccccc"/>
              </linearGradient><linearGradient id="gradient-1" gradientUnits="userSpaceOnUse" x1="32" y1="0" x2="32" y2="64" gradientTransform="matrix(0.5720739269920809, 0.8202024482107859, -0.6197917118148606, 0.43229157866678225, 22.360302392765618, 8.920192974728195)">
                <stop offset="0" style="stop-color: #0055ff"/>
                <stop offset="1" style="stop-color: #003399"/>
              </linearGradient><linearGradient id="gradient-2" gradientUnits="userSpaceOnUse" x1="32" y1="0" x2="32" y2="64" gradientTransform="matrix(0.9943996667861938, 0.10568487644195557, -0.05729168653488159, 0.5390625, 3.8458786010742188, 26.118083953857422)">
                <stop offset="0" style="stop-color: #007bff"/>
                <stop offset="1" style="stop-color: #004a99"/>
              </linearGradient><style id="ee-google-fonts">@import url(https://fonts.googleapis.com/css?family=Andada:400);</style><linearGradient id="gradient-3" gradientUnits="userSpaceOnUse" x1="66.671875" y1="-3.390625" x2="66.671875" y2="126.609375" gradientTransform="matrix(-0.9798506735916699, -0.1997313701554988, 0.1298374341263809, -0.6369629747153188, 104.0264525186626, 81.91369134938364)">
                <stop offset="0" style="stop-color: #2c67c6"/>
                <stop offset="1" style="stop-color: #1a3c73"/>
              </linearGradient><linearGradient id="gradient-4" gradientUnits="objectBoundingBox" x1="0.5" y1="0" x2="0.5" y2="1">
                <stop offset="0" style="stop-color: #ffbb00"/>
                <stop offset="1" style="stop-color: #997000"/>
              </linearGradient><radialGradient id="gradient-5" gradientUnits="objectBoundingBox" cx="0.5" cy="0.5" r="0.5">
                <stop offset="0" style="stop-color: #080099"/>
                <stop offset="1" style="stop-color: #030033"/>
              </radialGradient></defs><rect id="ee-background" x="0" y="0" width="64" height="64" style="fill: url('#gradient-5'); fill-opacity: 1; pointer-events: none;"/><g transform="matrix(0.14739865064620972, 0, 0, 0.14739865064620972, -25.205354690551758, -13.288004239400227)"><g transform="matrix(1.8025519847869873, 0, 0, 1.8025519847869873, -1828.1488037109375, -1145.7237548828125)"><g transform="matrix(1, 0, 0, 1, 0, 0)"><path d="M 1109.199951171875 735.0999755859375 L 1183 735.0999755859375 L 1183 788.0999755859375 L 1109.199951171875 788.0999755859375 L 1134.5 762.7999877929688 Z" class="st6" style="fill: rgb(255, 28, 36);" transform="matrix(1, 0, 0, 1, 1.8189894035458565e-12, 4.547473508864641e-13)"/><path d="M 1183 735.0999755859375 L 1145.9000244140625 762.5 L 1145.9000244140625 843 L 1183 788.0999755859375 Z" class="st28" style="fill: rgb(255, 28, 36);" transform="matrix(1, 0, 0, 1, 1.8189894035458565e-12, 4.547473508864641e-13)"/><path d="M 1351.199951171875 870.5 L 1277.4000244140625 870.5 L 1277.4000244140625 817.5 L 1351.199951171875 817.5 L 1325.9000244140625 842.7999877929688 Z" class="st6" style="fill: rgb(255, 28, 36);" transform="matrix(1, 0, 0, 1, 1.8189894035458565e-12, 4.547473508864641e-13)"/><path d="M 1277.4000244140625 870.5 L 1314.5 843 L 1314.5 762.5 L 1277.4000244140625 817.5 Z" class="st28" style="fill: rgb(255, 28, 36);" transform="matrix(1, 0, 0, 1, 1.8189894035458565e-12, 4.547473508864641e-13)"/><path d="M 1145.900024 762.5 H 1314.600021 V 843 H 1145.900024 V 762.5 Z" class="st8" style="fill: rgb(255, 28, 36);" transform="matrix(1, 0, 0, 1, 1.8189894035458565e-12, 4.547473508864641e-13)"/></g></g></g><path d="M 30.81999969482422 91.45999908447266 L 11.420000076293945 90.5 C 8.926666259765625 90.62667083740234 7.166666507720947 90.78666687011719 6.139999866485596 90.9800033569336 L 3.549999952316284 91.26000213623047 L 2.880000114440918 85.79000091552734 L 10.270000457763672 84.93000030517578 C 10.33666706085205 84.3499984741211 10.513333320617676 83.24666595458984 10.800000190734863 81.62000274658203 C 11.08666706085205 79.9866714477539 11.229999542236328 78.52999877929688 11.229999542236328 77.25 L 11.229999542236328 35.87000274658203 C 11.229999542236328 34.90999984741211 11.08666706085205 33.61333465576172 10.800000190734863 31.980003356933594 C 10.513333320617676 30.353336334228516 10.33666706085205 29.09000015258789 10.270000457763672 28.19000244140625 L 2.880000114440918 27.040000915527344 L 3.359999895095825 22.23999786376953 L 6.429999828338623 22.529998779296875 C 8.863333702087402 22.65666961669922 10.880000114440918 22.720001220703125 12.479999542236328 22.720001220703125 L 12.859999656677246 22.720001220703125 C 14.720000267028809 22.720001220703125 17.600000381469727 22.56000518798828 21.5 22.23999786376953 C 25.406665802001953 21.919998168945312 28.513334274291992 21.76000213623047 30.81999969482422 21.76000213623047 C 41.380001068115234 21.76000213623047 49.540000915527344 24.86333465576172 55.29999923706055 31.06999969482422 C 61.060001373291016 37.276668548583984 63.939998626708984 45.71000289916992 63.939998626708984 56.37000274658203 C 63.939998626708984 67.02333068847656 60.97999954223633 75.53333282470703 55.060001373291016 81.9000015258789 C 49.13999938964844 88.2733383178711 41.060001373291016 91.45999908447266 30.81999969482422 91.45999908447266 M 20.059999465942383 74.37000274658203 L 20.639999389648438 85.30999755859375 C 22.946666717529297 85.56999969482422 26.3700008392334 85.70000457763672 30.90999984741211 85.70000457763672 C 38.59000015258789 85.70000457763672 44.43000030517578 82.9800033569336 48.43000030517578 77.54000091552734 C 52.43000030517578 72.10000610351562 54.43000030517578 65.12333679199219 54.43000030517578 56.61000061035156 C 54.43000030517578 48.0966682434082 52.43000030517578 41.12000274658203 48.43000030517578 35.68000030517578 C 44.43000030517578 30.240001678466797 38.59000015258789 27.520000457763672 30.90999984741211 27.520000457763672 C 26.75 27.520000457763672 23.3266658782959 27.68000030517578 20.639999389648438 28 C 20.253334045410156 30.433334350585938 20.059999465942383 34.016666412353516 20.059999465942383 38.75 L 20.059999465942383 74.37000274658203 ZM 80.35598754882812 22.720001220703125 L 98.0159912109375 21.76000213623047 C 104.80265808105469 21.76000213623047 110.06599426269531 23.486671447753906 113.80598449707031 26.94000244140625 C 117.55265808105469 30.400001525878906 119.42599487304688 35.37666702270508 119.42599487304688 41.87000274658203 C 119.42599487304688 48.37000274658203 117.16932678222656 53.42667007446289 112.65599060058594 57.040000915527344 C 108.14265441894531 60.65333557128906 102.52598571777344 62.459999084472656 95.80599212646484 62.459999084472656 C 91.96598815917969 62.459999084472656 89.14932250976562 62.43000030517578 87.35598754882812 62.37000274658203 L 87.35598754882812 74.37000274658203 C 87.35598754882812 77.88999938964844 87.64598846435547 81.25 88.22599029541016 84.45000457763672 L 97.43598937988281 85.12000274658203 L 96.8659896850586 90.77999877929688 L 91.77598571777344 90.59000396728516 C 87.809326171875 90.46333312988281 84.59265899658203 90.4000015258789 82.12599182128906 90.4000015258789 C 79.6659927368164 90.4000015258789 77.21932220458984 90.56000518798828 74.7859878540039 90.8800048828125 L 70.84599304199219 91.26000213623047 L 70.17598724365234 85.79000091552734 L 77.56599426269531 84.93000030517578 C 77.63265991210938 84.3499984741211 77.809326171875 83.24666595458984 78.09599304199219 81.62000274658203 C 78.38265991210938 79.9866714477539 78.52598571777344 78.52999877929688 78.52598571777344 77.25 L 78.52598571777344 35.87000274658203 C 78.52598571777344 34.90999984741211 78.38265991210938 33.61333465576172 78.09599304199219 31.980003356933594 C 77.809326171875 30.353336334228516 77.63265991210938 29.09000015258789 77.56599426269531 28.19000244140625 L 70.17598724365234 27.040000915527344 L 70.65599060058594 22.23999786376953 L 73.72599029541016 22.529998779296875 C 76.1593246459961 22.65666961669922 78.17598724365234 22.720001220703125 79.77598571777344 22.720001220703125 L 80.35598754882812 22.720001220703125 M 93.885986328125 57.65999984741211 C 99.00598907470703 57.65999984741211 103.03932189941406 56.35000228881836 105.98599243164062 53.730003356933594 C 108.92599487304688 51.103336334228516 110.39598846435547 47.263336181640625 110.39598846435547 42.21000289916992 C 110.39598846435547 37.150001525878906 108.94265747070312 33.276668548583984 106.03599548339844 30.59000015258789 C 103.1226577758789 27.903335571289062 99.10598754882812 26.560001373291016 93.98599243164062 26.560001373291016 C 92.5793228149414 26.560001373291016 90.59599304199219 26.720001220703125 88.0359878540039 27.040000915527344 L 88.0359878540039 27.230003356933594 L 87.64598846435547 31.170001983642578 C 87.45265197753906 32.70333480834961 87.35598754882812 35.230003356933594 87.35598754882812 38.75 L 87.35598754882812 57.28000259399414 C 89.46932220458984 57.5333366394043 91.64598846435547 57.65999984741211 93.885986328125 57.65999984741211 Z" transform="matrix(0.24532319605350494, -0.00012873098603449762, 0.00012873098603449762, 0.24532319605350494, 17.44309425354004, 17.432682037353516)" style="fill: rgb(0, 0, 0); white-space: pre; color: rgb(0, 0, 0);"/></svg>